<mxfile host="app.diagrams.net" agent="Mozilla/5.0 (Macintosh; Intel Mac OS X 10_15_7) AppleWebKit/537.36 (KHTML, like Gecko) Chrome/131.0.0.0 Safari/537.36" version="26.0.6">
  <diagram name="Seite-1" id="G-3JhNq8xOOUC7LVodZi">
    <mxGraphModel dx="1224" dy="761" grid="1" gridSize="10" guides="1" tooltips="1" connect="1" arrows="1" fold="1" page="1" pageScale="1" pageWidth="827" pageHeight="1169" math="0" shadow="0">
      <root>
        <mxCell id="0" />
        <mxCell id="1" parent="0" />
        <mxCell id="-q6FsrDJ1THcrWOx80Kk-4" style="rounded=0;orthogonalLoop=1;jettySize=auto;html=1;entryX=0;entryY=0;entryDx=146;entryDy=360;entryPerimeter=0;endArrow=none;endFill=0;" parent="1" target="-q6FsrDJ1THcrWOx80Kk-23" edge="1">
          <mxGeometry relative="1" as="geometry">
            <mxPoint x="250" y="345" as="sourcePoint" />
            <mxPoint x="450" y="200" as="targetPoint" />
          </mxGeometry>
        </mxCell>
        <mxCell id="-q6FsrDJ1THcrWOx80Kk-5" value="&lt;span style=&quot;font-size: 12px; text-wrap: wrap; background-color: rgb(251, 251, 251);&quot;&gt;«&lt;/span&gt;protocol&lt;span style=&quot;font-size: 12px; text-wrap: wrap; background-color: rgb(251, 251, 251);&quot;&gt;»&lt;/span&gt;&lt;br&gt;ssh" style="edgeLabel;html=1;align=center;verticalAlign=middle;resizable=0;points=[];" parent="-q6FsrDJ1THcrWOx80Kk-4" vertex="1" connectable="0">
          <mxGeometry x="0.1343" relative="1" as="geometry">
            <mxPoint x="-7" y="-44" as="offset" />
          </mxGeometry>
        </mxCell>
        <mxCell id="-q6FsrDJ1THcrWOx80Kk-6" value="«device»&amp;nbsp;&lt;b&gt;Ansible Client&lt;/b&gt;" style="verticalAlign=top;align=center;shape=cube;size=10;direction=south;html=1;boundedLbl=1;spacingLeft=5;whiteSpace=wrap;" parent="1" vertex="1">
          <mxGeometry x="60" y="250" width="190" height="200" as="geometry" />
        </mxCell>
        <mxCell id="-q6FsrDJ1THcrWOx80Kk-7" value="«component»&lt;br&gt;&lt;b&gt;Playbooks&lt;/b&gt;" style="html=1;dropTarget=0;whiteSpace=wrap;" parent="1" vertex="1">
          <mxGeometry x="90" y="290" width="130" height="60" as="geometry" />
        </mxCell>
        <mxCell id="-q6FsrDJ1THcrWOx80Kk-8" value="" style="shape=module;jettyWidth=8;jettyHeight=4;" parent="-q6FsrDJ1THcrWOx80Kk-7" vertex="1">
          <mxGeometry x="1" width="20" height="20" relative="1" as="geometry">
            <mxPoint x="-27" y="7" as="offset" />
          </mxGeometry>
        </mxCell>
        <mxCell id="-q6FsrDJ1THcrWOx80Kk-9" value="" style="group" parent="1" vertex="1" connectable="0">
          <mxGeometry x="90" y="360" width="110" height="70" as="geometry" />
        </mxCell>
        <mxCell id="-q6FsrDJ1THcrWOx80Kk-10" value="«artefact»&lt;br&gt;&lt;b&gt;Ansible&lt;/b&gt;" style="html=1;dropTarget=0;whiteSpace=wrap;" parent="-q6FsrDJ1THcrWOx80Kk-9" vertex="1">
          <mxGeometry width="110" height="70" as="geometry" />
        </mxCell>
        <mxCell id="-q6FsrDJ1THcrWOx80Kk-11" value="" style="shape=note2;boundedLbl=1;whiteSpace=wrap;html=1;size=6;verticalAlign=top;align=left;spacingLeft=5;" parent="-q6FsrDJ1THcrWOx80Kk-9" vertex="1">
          <mxGeometry x="88.84615384615384" y="8.75" width="12.692307692307692" height="17.5" as="geometry" />
        </mxCell>
        <mxCell id="-q6FsrDJ1THcrWOx80Kk-12" value="Verteilungsdiagramm: Ansible Local Storage" style="shape=umlFrame;whiteSpace=wrap;html=1;pointerEvents=0;width=250;height=30;" parent="1" vertex="1">
          <mxGeometry x="40" y="180" width="700" height="320" as="geometry" />
        </mxCell>
        <mxCell id="-q6FsrDJ1THcrWOx80Kk-23" value="«device»&amp;nbsp;&lt;b&gt;artpc17 (master)&lt;/b&gt;" style="verticalAlign=top;align=center;shape=cube;size=10;direction=south;html=1;boundedLbl=1;spacingLeft=5;whiteSpace=wrap;" parent="1" vertex="1">
          <mxGeometry x="357.5" y="199" width="359.5" height="282" as="geometry" />
        </mxCell>
        <mxCell id="-q6FsrDJ1THcrWOx80Kk-28" value="" style="group" parent="1" vertex="1" connectable="0">
          <mxGeometry x="370" y="316" width="110" height="70" as="geometry" />
        </mxCell>
        <mxCell id="-q6FsrDJ1THcrWOx80Kk-29" value="«Folder»&lt;br&gt;&lt;b&gt;~k8user/localpv-monitoring&lt;/b&gt;" style="html=1;dropTarget=0;whiteSpace=wrap;" parent="-q6FsrDJ1THcrWOx80Kk-28" vertex="1">
          <mxGeometry width="110" height="70" as="geometry" />
        </mxCell>
        <mxCell id="-q6FsrDJ1THcrWOx80Kk-30" value="" style="shape=note2;boundedLbl=1;whiteSpace=wrap;html=1;size=6;verticalAlign=top;align=left;spacingLeft=5;" parent="-q6FsrDJ1THcrWOx80Kk-28" vertex="1">
          <mxGeometry x="88.84615384615384" y="8.75" width="12.692307692307692" height="17.5" as="geometry" />
        </mxCell>
        <mxCell id="-q6FsrDJ1THcrWOx80Kk-31" value="" style="group" parent="1" vertex="1" connectable="0">
          <mxGeometry x="545.5" y="396" width="171" height="70" as="geometry" />
        </mxCell>
        <mxCell id="-q6FsrDJ1THcrWOx80Kk-32" value="«Folder»&lt;br&gt;&lt;b&gt;.../localpv-monitoring/alertmanager&lt;/b&gt;" style="html=1;dropTarget=0;whiteSpace=wrap;" parent="-q6FsrDJ1THcrWOx80Kk-31" vertex="1">
          <mxGeometry width="150" height="70" as="geometry" />
        </mxCell>
        <mxCell id="-q6FsrDJ1THcrWOx80Kk-33" value="" style="shape=note2;boundedLbl=1;whiteSpace=wrap;html=1;size=6;verticalAlign=top;align=left;spacingLeft=5;" parent="-q6FsrDJ1THcrWOx80Kk-31" vertex="1">
          <mxGeometry x="121.15384615384613" y="8.75" width="17.307692307692307" height="17.5" as="geometry" />
        </mxCell>
        <mxCell id="-q6FsrDJ1THcrWOx80Kk-34" value="" style="group" parent="1" vertex="1" connectable="0">
          <mxGeometry x="566" y="316" width="130" height="70" as="geometry" />
        </mxCell>
        <mxCell id="-q6FsrDJ1THcrWOx80Kk-35" value="«Folder»&lt;br&gt;&lt;b&gt;.../localpv-monitoring/grafana&lt;/b&gt;" style="html=1;dropTarget=0;whiteSpace=wrap;" parent="-q6FsrDJ1THcrWOx80Kk-34" vertex="1">
          <mxGeometry x="-20" width="150" height="70" as="geometry" />
        </mxCell>
        <mxCell id="-q6FsrDJ1THcrWOx80Kk-36" value="" style="shape=note2;boundedLbl=1;whiteSpace=wrap;html=1;size=6;verticalAlign=top;align=left;spacingLeft=5;" parent="-q6FsrDJ1THcrWOx80Kk-34" vertex="1">
          <mxGeometry x="106.84615384615384" y="8.75" width="12.692307692307692" height="17.5" as="geometry" />
        </mxCell>
        <mxCell id="-q6FsrDJ1THcrWOx80Kk-37" value="" style="group" parent="1" vertex="1" connectable="0">
          <mxGeometry x="546" y="236" width="150" height="70" as="geometry" />
        </mxCell>
        <mxCell id="-q6FsrDJ1THcrWOx80Kk-38" value="«Folder»&lt;br&gt;&lt;b&gt;.../localpv-monitoring/prometheus&lt;/b&gt;" style="html=1;dropTarget=0;whiteSpace=wrap;" parent="-q6FsrDJ1THcrWOx80Kk-37" vertex="1">
          <mxGeometry width="150" height="70" as="geometry" />
        </mxCell>
        <mxCell id="-q6FsrDJ1THcrWOx80Kk-39" value="" style="shape=note2;boundedLbl=1;whiteSpace=wrap;html=1;size=6;verticalAlign=top;align=left;spacingLeft=5;" parent="-q6FsrDJ1THcrWOx80Kk-37" vertex="1">
          <mxGeometry x="121.15384615384613" y="8.75" width="17.307692307692307" height="17.5" as="geometry" />
        </mxCell>
        <mxCell id="-q6FsrDJ1THcrWOx80Kk-41" style="rounded=0;orthogonalLoop=1;jettySize=auto;html=1;exitX=0;exitY=0.5;exitDx=0;exitDy=0;entryX=1;entryY=0.25;entryDx=0;entryDy=0;dashed=1;endArrow=open;endFill=0;strokeWidth=1;endSize=9;startSize=6;" parent="1" source="-q6FsrDJ1THcrWOx80Kk-38" target="-q6FsrDJ1THcrWOx80Kk-29" edge="1">
          <mxGeometry relative="1" as="geometry">
            <mxPoint x="600" y="299.5" as="sourcePoint" />
            <mxPoint x="547" y="299.5" as="targetPoint" />
            <Array as="points" />
          </mxGeometry>
        </mxCell>
        <mxCell id="-q6FsrDJ1THcrWOx80Kk-42" style="rounded=0;orthogonalLoop=1;jettySize=auto;html=1;exitX=0;exitY=0.5;exitDx=0;exitDy=0;entryX=1;entryY=0.5;entryDx=0;entryDy=0;dashed=1;endArrow=open;endFill=0;strokeWidth=1;endSize=9;startSize=6;" parent="1" source="-q6FsrDJ1THcrWOx80Kk-35" target="-q6FsrDJ1THcrWOx80Kk-29" edge="1">
          <mxGeometry relative="1" as="geometry">
            <mxPoint x="556" y="281" as="sourcePoint" />
            <mxPoint x="490" y="355" as="targetPoint" />
            <Array as="points" />
          </mxGeometry>
        </mxCell>
        <mxCell id="-q6FsrDJ1THcrWOx80Kk-43" style="rounded=0;orthogonalLoop=1;jettySize=auto;html=1;exitX=0;exitY=0.5;exitDx=0;exitDy=0;dashed=1;endArrow=open;endFill=0;strokeWidth=1;endSize=9;startSize=6;entryX=1;entryY=0.75;entryDx=0;entryDy=0;" parent="1" source="-q6FsrDJ1THcrWOx80Kk-32" target="-q6FsrDJ1THcrWOx80Kk-29" edge="1">
          <mxGeometry relative="1" as="geometry">
            <mxPoint x="556" y="361" as="sourcePoint" />
            <mxPoint x="480" y="370" as="targetPoint" />
            <Array as="points" />
          </mxGeometry>
        </mxCell>
      </root>
    </mxGraphModel>
  </diagram>
</mxfile>
